# xmcd
#
# Track frame offsets:
#	150
#	22081
#	35704
#	49408
#	67927
#	87852
#	107970
#	115562
#	138057
#	152978
#
# Disc length: 2247 seconds
#
# Revision: 3
# Processed by: cddbd v1.5.2PL0 Copyright (c) Steve Scherf et al.
# Submitted via: audiograbber 1.83.01
#
DISCID=8308c50a
DTITLE=Various Artist - For The Road - Blues Box 3
DYEAR=2000
DGENRE=Blues
TTITLE0=Lightnin' Hopkins - Your Own Fault Baby To Treat Me The Way You Do
TTITLE1=Magic Sam - Gangster Blues
TTITLE2=Muddy Waters - You Gonna Need My Help
TTITLE3=Etta James - Respect Yourself
TTITLE4=Otis Spann - Worried Life Blues
TTITLE5=Etta James - Drowning In My Own Tears
TTITLE6=Son House - A True Friend Is Hard To Find
TTITLE7=Memphis Slim - Lonesome In My Bedroom
TTITLE8=Jimmy Reed - I Was So Young
TTITLE9=Big Joe Williams - Nobody Knows When You're Down and Out
EXTD=
EXTT0=
EXTT1=
EXTT2=
EXTT3=
EXTT4=
EXTT5=
EXTT6=
EXTT7=
EXTT8=
EXTT9=
PLAYORDER=
